<mxfile host="app.diagrams.net" agent="Mozilla/5.0 (Windows NT 10.0; Win64; x64) AppleWebKit/537.36 (KHTML, like Gecko) Chrome/136.0.0.0 Safari/537.36 Edg/136.0.0.0" version="27.0.9">
  <diagram name="Trang-1" id="HicUJqY4BSNGrv9rqQwd">
    <mxGraphModel dx="1103" dy="568" grid="1" gridSize="10" guides="1" tooltips="1" connect="1" arrows="1" fold="1" page="1" pageScale="1" pageWidth="827" pageHeight="1169" math="0" shadow="0" adaptiveColors="simple">
      <root>
        <mxCell id="0" />
        <mxCell id="1" parent="0" />
        <mxCell id="gEbOzgG66HOt_zcKLP9L-1" value="" style="shape=folder;fontStyle=1;spacingTop=10;tabWidth=40;tabHeight=14;tabPosition=left;html=1;whiteSpace=wrap;" parent="1" vertex="1">
          <mxGeometry x="220" y="150" width="1170" height="850" as="geometry" />
        </mxCell>
        <mxCell id="gEbOzgG66HOt_zcKLP9L-2" value="UserModel" style="swimlane;fontStyle=1;align=center;verticalAlign=top;childLayout=stackLayout;horizontal=1;startSize=26;horizontalStack=0;resizeParent=1;resizeParentMax=0;resizeLast=0;collapsible=1;marginBottom=0;whiteSpace=wrap;html=1;" parent="1" vertex="1">
          <mxGeometry x="370" y="360" width="200" height="268" as="geometry" />
        </mxCell>
        <mxCell id="gEbOzgG66HOt_zcKLP9L-3" value="- user_id: int&lt;div&gt;- username: String&lt;/div&gt;&lt;div&gt;- password: String&lt;/div&gt;&lt;div&gt;- email: String&lt;/div&gt;&lt;div&gt;- googleLinked: int&lt;/div&gt;&lt;div&gt;- birthday: LocalDate&lt;/div&gt;&lt;div&gt;- setting: SettingModel&lt;/div&gt;&lt;div&gt;&lt;br&gt;&lt;/div&gt;&lt;div&gt;&lt;br&gt;&lt;/div&gt;" style="text;strokeColor=none;fillColor=none;align=left;verticalAlign=top;spacingLeft=4;spacingRight=4;overflow=hidden;rotatable=0;points=[[0,0.5],[1,0.5]];portConstraint=eastwest;whiteSpace=wrap;html=1;" parent="gEbOzgG66HOt_zcKLP9L-2" vertex="1">
          <mxGeometry y="26" width="200" height="114" as="geometry" />
        </mxCell>
        <mxCell id="gEbOzgG66HOt_zcKLP9L-4" value="" style="line;strokeWidth=1;fillColor=none;align=left;verticalAlign=middle;spacingTop=-1;spacingLeft=3;spacingRight=3;rotatable=0;labelPosition=right;points=[];portConstraint=eastwest;strokeColor=inherit;" parent="gEbOzgG66HOt_zcKLP9L-2" vertex="1">
          <mxGeometry y="140" width="200" height="8" as="geometry" />
        </mxCell>
        <mxCell id="gEbOzgG66HOt_zcKLP9L-5" value="+ updateInfor()&lt;div&gt;+ getInfor()&lt;/div&gt;&lt;div&gt;+ addUser()&lt;/div&gt;&lt;div&gt;&lt;br&gt;&lt;div&gt;&lt;br&gt;&lt;/div&gt;&lt;div&gt;&lt;br&gt;&lt;/div&gt;&lt;div&gt;&lt;br&gt;&lt;/div&gt;&lt;/div&gt;" style="text;strokeColor=none;fillColor=none;align=left;verticalAlign=top;spacingLeft=4;spacingRight=4;overflow=hidden;rotatable=0;points=[[0,0.5],[1,0.5]];portConstraint=eastwest;whiteSpace=wrap;html=1;" parent="gEbOzgG66HOt_zcKLP9L-2" vertex="1">
          <mxGeometry y="148" width="200" height="120" as="geometry" />
        </mxCell>
        <mxCell id="gEbOzgG66HOt_zcKLP9L-6" value="SettingModel" style="swimlane;fontStyle=1;align=center;verticalAlign=top;childLayout=stackLayout;horizontal=1;startSize=26;horizontalStack=0;resizeParent=1;resizeParentMax=0;resizeLast=0;collapsible=1;marginBottom=0;whiteSpace=wrap;html=1;" parent="1" vertex="1">
          <mxGeometry x="340" y="750" width="250" height="230" as="geometry" />
        </mxCell>
        <mxCell id="gEbOzgG66HOt_zcKLP9L-7" value="&lt;div&gt;- setting_id: int&lt;/div&gt;&lt;div&gt;- viewMode: String {&quot;week&quot;, &quot;month&quot;, &quot;year&quot;}&lt;/div&gt;&lt;div&gt;- timeZone: String&lt;/div&gt;&lt;div&gt;- defaultRemindTime: int&lt;/div&gt;" style="text;strokeColor=none;fillColor=none;align=left;verticalAlign=top;spacingLeft=4;spacingRight=4;overflow=hidden;rotatable=0;points=[[0,0.5],[1,0.5]];portConstraint=eastwest;whiteSpace=wrap;html=1;" parent="gEbOzgG66HOt_zcKLP9L-6" vertex="1">
          <mxGeometry y="26" width="250" height="74" as="geometry" />
        </mxCell>
        <mxCell id="gEbOzgG66HOt_zcKLP9L-8" value="" style="line;strokeWidth=1;fillColor=none;align=left;verticalAlign=middle;spacingTop=-1;spacingLeft=3;spacingRight=3;rotatable=0;labelPosition=right;points=[];portConstraint=eastwest;strokeColor=inherit;" parent="gEbOzgG66HOt_zcKLP9L-6" vertex="1">
          <mxGeometry y="100" width="250" height="8" as="geometry" />
        </mxCell>
        <mxCell id="gEbOzgG66HOt_zcKLP9L-9" value="+ updateSetting()&lt;div&gt;+ getSetting()&lt;/div&gt;" style="text;strokeColor=none;fillColor=none;align=left;verticalAlign=top;spacingLeft=4;spacingRight=4;overflow=hidden;rotatable=0;points=[[0,0.5],[1,0.5]];portConstraint=eastwest;whiteSpace=wrap;html=1;" parent="gEbOzgG66HOt_zcKLP9L-6" vertex="1">
          <mxGeometry y="108" width="250" height="122" as="geometry" />
        </mxCell>
        <mxCell id="gEbOzgG66HOt_zcKLP9L-10" value="EventModel" style="swimlane;fontStyle=1;align=center;verticalAlign=top;childLayout=stackLayout;horizontal=1;startSize=26;horizontalStack=0;resizeParent=1;resizeParentMax=0;resizeLast=0;collapsible=1;marginBottom=0;whiteSpace=wrap;html=1;" parent="1" vertex="1">
          <mxGeometry x="1050" y="320" width="180" height="330" as="geometry" />
        </mxCell>
        <mxCell id="gEbOzgG66HOt_zcKLP9L-11" value="- event_id: int&lt;div&gt;- title: String&lt;/div&gt;&lt;div&gt;- description: String&lt;/div&gt;&lt;div&gt;- startTime: ZoneDateTime&lt;/div&gt;&lt;div&gt;- endTime: ZoneDateTime&lt;/div&gt;&lt;div&gt;- location: String&lt;/div&gt;&lt;div&gt;- link: String&lt;/div&gt;&lt;div&gt;- Reminder: ReminderModel&lt;/div&gt;" style="text;strokeColor=none;fillColor=none;align=left;verticalAlign=top;spacingLeft=4;spacingRight=4;overflow=hidden;rotatable=0;points=[[0,0.5],[1,0.5]];portConstraint=eastwest;whiteSpace=wrap;html=1;" parent="gEbOzgG66HOt_zcKLP9L-10" vertex="1">
          <mxGeometry y="26" width="180" height="134" as="geometry" />
        </mxCell>
        <mxCell id="gEbOzgG66HOt_zcKLP9L-12" value="" style="line;strokeWidth=1;fillColor=none;align=left;verticalAlign=middle;spacingTop=-1;spacingLeft=3;spacingRight=3;rotatable=0;labelPosition=right;points=[];portConstraint=eastwest;strokeColor=inherit;" parent="gEbOzgG66HOt_zcKLP9L-10" vertex="1">
          <mxGeometry y="160" width="180" height="8" as="geometry" />
        </mxCell>
        <mxCell id="gEbOzgG66HOt_zcKLP9L-13" value="&lt;div&gt;+ addEvent()&lt;/div&gt;&lt;div&gt;+ deleteEvent()&lt;/div&gt;&lt;div&gt;+ updateEvent()&lt;/div&gt;" style="text;strokeColor=none;fillColor=none;align=left;verticalAlign=top;spacingLeft=4;spacingRight=4;overflow=hidden;rotatable=0;points=[[0,0.5],[1,0.5]];portConstraint=eastwest;whiteSpace=wrap;html=1;" parent="gEbOzgG66HOt_zcKLP9L-10" vertex="1">
          <mxGeometry y="168" width="180" height="162" as="geometry" />
        </mxCell>
        <mxCell id="gEbOzgG66HOt_zcKLP9L-14" value="ReminderModel" style="swimlane;fontStyle=1;align=center;verticalAlign=top;childLayout=stackLayout;horizontal=1;startSize=26;horizontalStack=0;resizeParent=1;resizeParentMax=0;resizeLast=0;collapsible=1;marginBottom=0;whiteSpace=wrap;html=1;" parent="1" vertex="1">
          <mxGeometry x="1040" y="745" width="200" height="220" as="geometry" />
        </mxCell>
        <mxCell id="gEbOzgG66HOt_zcKLP9L-15" value="- reminder_id: int&lt;div&gt;- remindTime: int&lt;/div&gt;&lt;div&gt;- method: String {&quot;push&quot;, &quot;email&quot;}&lt;/div&gt;&lt;div&gt;&lt;br&gt;&lt;/div&gt;&lt;div&gt;&lt;br&gt;&lt;/div&gt;" style="text;strokeColor=none;fillColor=none;align=left;verticalAlign=top;spacingLeft=4;spacingRight=4;overflow=hidden;rotatable=0;points=[[0,0.5],[1,0.5]];portConstraint=eastwest;whiteSpace=wrap;html=1;" parent="gEbOzgG66HOt_zcKLP9L-14" vertex="1">
          <mxGeometry y="26" width="200" height="64" as="geometry" />
        </mxCell>
        <mxCell id="gEbOzgG66HOt_zcKLP9L-16" value="" style="line;strokeWidth=1;fillColor=none;align=left;verticalAlign=middle;spacingTop=-1;spacingLeft=3;spacingRight=3;rotatable=0;labelPosition=right;points=[];portConstraint=eastwest;strokeColor=inherit;" parent="gEbOzgG66HOt_zcKLP9L-14" vertex="1">
          <mxGeometry y="90" width="200" height="8" as="geometry" />
        </mxCell>
        <mxCell id="gEbOzgG66HOt_zcKLP9L-17" value="+ updateReminder()&lt;div&gt;+ deleteRemind()&lt;/div&gt;&lt;div&gt;+ addRemind()&lt;/div&gt;" style="text;strokeColor=none;fillColor=none;align=left;verticalAlign=top;spacingLeft=4;spacingRight=4;overflow=hidden;rotatable=0;points=[[0,0.5],[1,0.5]];portConstraint=eastwest;whiteSpace=wrap;html=1;" parent="gEbOzgG66HOt_zcKLP9L-14" vertex="1">
          <mxGeometry y="98" width="200" height="122" as="geometry" />
        </mxCell>
        <mxCell id="gEbOzgG66HOt_zcKLP9L-18" value="UserjoinEventModel" style="swimlane;fontStyle=1;align=center;verticalAlign=top;childLayout=stackLayout;horizontal=1;startSize=26;horizontalStack=0;resizeParent=1;resizeParentMax=0;resizeLast=0;collapsible=1;marginBottom=0;whiteSpace=wrap;html=1;" parent="1" vertex="1">
          <mxGeometry x="750" y="170" width="160" height="190" as="geometry" />
        </mxCell>
        <mxCell id="gEbOzgG66HOt_zcKLP9L-19" value="&lt;div&gt;- id: int&lt;/div&gt;&lt;div&gt;- user_id: int&lt;/div&gt;&lt;div&gt;- event_id: int&lt;/div&gt;&lt;div&gt;- role: String {owner, editor, viewer}&lt;/div&gt;" style="text;strokeColor=none;fillColor=none;align=left;verticalAlign=top;spacingLeft=4;spacingRight=4;overflow=hidden;rotatable=0;points=[[0,0.5],[1,0.5]];portConstraint=eastwest;whiteSpace=wrap;html=1;" parent="gEbOzgG66HOt_zcKLP9L-18" vertex="1">
          <mxGeometry y="26" width="160" height="84" as="geometry" />
        </mxCell>
        <mxCell id="gEbOzgG66HOt_zcKLP9L-20" value="" style="line;strokeWidth=1;fillColor=none;align=left;verticalAlign=middle;spacingTop=-1;spacingLeft=3;spacingRight=3;rotatable=0;labelPosition=right;points=[];portConstraint=eastwest;strokeColor=inherit;" parent="gEbOzgG66HOt_zcKLP9L-18" vertex="1">
          <mxGeometry y="110" width="160" height="8" as="geometry" />
        </mxCell>
        <mxCell id="gEbOzgG66HOt_zcKLP9L-21" value="+ updateJoin()&lt;div&gt;+ getMember()&lt;/div&gt;&lt;div&gt;+ deleteMember()&lt;/div&gt;&lt;div&gt;&lt;br&gt;&lt;/div&gt;" style="text;strokeColor=none;fillColor=none;align=left;verticalAlign=top;spacingLeft=4;spacingRight=4;overflow=hidden;rotatable=0;points=[[0,0.5],[1,0.5]];portConstraint=eastwest;whiteSpace=wrap;html=1;" parent="gEbOzgG66HOt_zcKLP9L-18" vertex="1">
          <mxGeometry y="118" width="160" height="72" as="geometry" />
        </mxCell>
        <mxCell id="gEbOzgG66HOt_zcKLP9L-22" value="UserEditLog" style="swimlane;fontStyle=1;align=center;verticalAlign=top;childLayout=stackLayout;horizontal=1;startSize=26;horizontalStack=0;resizeParent=1;resizeParentMax=0;resizeLast=0;collapsible=1;marginBottom=0;whiteSpace=wrap;html=1;" parent="1" vertex="1">
          <mxGeometry x="660" y="560" width="320" height="300" as="geometry" />
        </mxCell>
        <mxCell id="gEbOzgG66HOt_zcKLP9L-23" value="&lt;div&gt;- edit_id: int&lt;/div&gt;&lt;div&gt;- user_id: int&lt;/div&gt;&lt;div&gt;- event_id: int&lt;/div&gt;&lt;div&gt;- editedTime: ZoneDateTime&lt;/div&gt;&lt;div&gt;- editedField: String {&quot;title&quot;,&quot;description&quot;,&quot;startTime&quot;,&quot;endTime&quot;,&quot;location&quot;,&quot;link&quot;}&lt;/div&gt;&lt;div&gt;- oldValue: String&lt;/div&gt;&lt;div&gt;- newValue: String&lt;/div&gt;" style="text;strokeColor=none;fillColor=none;align=left;verticalAlign=top;spacingLeft=4;spacingRight=4;overflow=hidden;rotatable=0;points=[[0,0.5],[1,0.5]];portConstraint=eastwest;whiteSpace=wrap;html=1;" parent="gEbOzgG66HOt_zcKLP9L-22" vertex="1">
          <mxGeometry y="26" width="320" height="134" as="geometry" />
        </mxCell>
        <mxCell id="gEbOzgG66HOt_zcKLP9L-24" value="" style="line;strokeWidth=1;fillColor=none;align=left;verticalAlign=middle;spacingTop=-1;spacingLeft=3;spacingRight=3;rotatable=0;labelPosition=right;points=[];portConstraint=eastwest;strokeColor=inherit;" parent="gEbOzgG66HOt_zcKLP9L-22" vertex="1">
          <mxGeometry y="160" width="320" height="8" as="geometry" />
        </mxCell>
        <mxCell id="gEbOzgG66HOt_zcKLP9L-25" value="+ updateLog()&lt;div&gt;+ getLog()&lt;/div&gt;&lt;div&gt;&lt;br&gt;&lt;/div&gt;" style="text;strokeColor=none;fillColor=none;align=left;verticalAlign=top;spacingLeft=4;spacingRight=4;overflow=hidden;rotatable=0;points=[[0,0.5],[1,0.5]];portConstraint=eastwest;whiteSpace=wrap;html=1;" parent="gEbOzgG66HOt_zcKLP9L-22" vertex="1">
          <mxGeometry y="168" width="320" height="132" as="geometry" />
        </mxCell>
        <mxCell id="gEbOzgG66HOt_zcKLP9L-39" value="" style="endArrow=diamondThin;endFill=1;endSize=24;html=1;rounded=0;exitX=0.5;exitY=0;exitDx=0;exitDy=0;entryX=0.481;entryY=1.029;entryDx=0;entryDy=0;entryPerimeter=0;" parent="1" source="gEbOzgG66HOt_zcKLP9L-6" target="gEbOzgG66HOt_zcKLP9L-5" edge="1">
          <mxGeometry width="160" relative="1" as="geometry">
            <mxPoint x="520" y="820" as="sourcePoint" />
            <mxPoint x="680" y="820" as="targetPoint" />
          </mxGeometry>
        </mxCell>
        <mxCell id="gEbOzgG66HOt_zcKLP9L-40" value="1" style="text;html=1;align=center;verticalAlign=middle;whiteSpace=wrap;rounded=0;" parent="1" vertex="1">
          <mxGeometry x="410" y="630" width="60" height="30" as="geometry" />
        </mxCell>
        <mxCell id="gEbOzgG66HOt_zcKLP9L-42" value="1" style="text;html=1;align=center;verticalAlign=middle;whiteSpace=wrap;rounded=0;" parent="1" vertex="1">
          <mxGeometry x="410" y="720" width="60" height="30" as="geometry" />
        </mxCell>
        <mxCell id="gEbOzgG66HOt_zcKLP9L-44" value="" style="endArrow=diamondThin;endFill=1;endSize=24;html=1;rounded=0;exitX=0.5;exitY=0;exitDx=0;exitDy=0;entryX=0.491;entryY=0.966;entryDx=0;entryDy=0;entryPerimeter=0;" parent="1" source="gEbOzgG66HOt_zcKLP9L-14" target="gEbOzgG66HOt_zcKLP9L-13" edge="1">
          <mxGeometry width="160" relative="1" as="geometry">
            <mxPoint x="1140" y="715" as="sourcePoint" />
            <mxPoint x="1137" y="621" as="targetPoint" />
          </mxGeometry>
        </mxCell>
        <mxCell id="gEbOzgG66HOt_zcKLP9L-46" value="1" style="text;html=1;align=center;verticalAlign=middle;whiteSpace=wrap;rounded=0;" parent="1" vertex="1">
          <mxGeometry x="1100" y="715" width="60" height="30" as="geometry" />
        </mxCell>
        <mxCell id="gEbOzgG66HOt_zcKLP9L-52" value="" style="endArrow=none;html=1;rounded=0;exitX=0.998;exitY=0.408;exitDx=0;exitDy=0;exitPerimeter=0;entryX=-0.008;entryY=0.599;entryDx=0;entryDy=0;entryPerimeter=0;" parent="1" edge="1">
          <mxGeometry width="50" height="50" relative="1" as="geometry">
            <mxPoint x="570.0000000000001" y="426.2420000000001" as="sourcePoint" />
            <mxPoint x="1048.9600000000005" y="429.996" as="targetPoint" />
          </mxGeometry>
        </mxCell>
        <mxCell id="gEbOzgG66HOt_zcKLP9L-54" value="0...*" style="text;html=1;align=center;verticalAlign=middle;whiteSpace=wrap;rounded=0;" parent="1" vertex="1">
          <mxGeometry x="1000" y="400" width="60" height="30" as="geometry" />
        </mxCell>
        <mxCell id="gEbOzgG66HOt_zcKLP9L-55" value="1...*" style="text;html=1;align=center;verticalAlign=middle;whiteSpace=wrap;rounded=0;" parent="1" vertex="1">
          <mxGeometry x="560" y="400" width="60" height="30" as="geometry" />
        </mxCell>
        <mxCell id="gEbOzgG66HOt_zcKLP9L-56" value="" style="endArrow=none;dashed=1;html=1;rounded=0;entryX=0.498;entryY=0.955;entryDx=0;entryDy=0;entryPerimeter=0;" parent="1" target="gEbOzgG66HOt_zcKLP9L-21" edge="1">
          <mxGeometry width="50" height="50" relative="1" as="geometry">
            <mxPoint x="830" y="430" as="sourcePoint" />
            <mxPoint x="860" y="540" as="targetPoint" />
          </mxGeometry>
        </mxCell>
        <mxCell id="gEbOzgG66HOt_zcKLP9L-60" value="" style="endArrow=none;dashed=1;html=1;rounded=0;exitX=0.5;exitY=0;exitDx=0;exitDy=0;" parent="1" source="gEbOzgG66HOt_zcKLP9L-22" edge="1">
          <mxGeometry width="50" height="50" relative="1" as="geometry">
            <mxPoint x="840" y="471" as="sourcePoint" />
            <mxPoint x="820" y="430" as="targetPoint" />
          </mxGeometry>
        </mxCell>
        <mxCell id="gEbOzgG66HOt_zcKLP9L-61" value="1" style="text;html=1;align=center;verticalAlign=middle;whiteSpace=wrap;rounded=0;" parent="1" vertex="1">
          <mxGeometry x="1100" y="660" width="60" height="30" as="geometry" />
        </mxCell>
      </root>
    </mxGraphModel>
  </diagram>
</mxfile>
